<svg xmlns="http://www.w3.org/2000/svg" id="Layer_1" data-name="Layer 1" viewBox="0 0 1440 80">
<title>wave-bottom</title>
<path d="M397.17.21H322.83Q341.06,0,360,0,378.26,0,397.17.21Z" fill="#2196f3" fill-rule="evenodd"/>
<path d="M397.17.21H322.83Q341.06,0,360,0,378.26,0,397.17.21Z" fill="#2196f3" fill-rule="evenodd"/>
<path d="M720,39.68a1627.7,1627.7,0,0,0-720,0V80H1080.05A1627.76,1627.76,0,0,1,720,39.68ZM322.78.21Q341,0,360,0q18.27,0,37.18.22Z" fill="#2196f3" fill-rule="evenodd"/>
<path d="M1440,39.68V80h-360A1627.67,1627.67,0,0,0,1440,39.68Z" fill="#2196f3" fill-rule="evenodd"/>
</svg>